<mxfile host="app.diagrams.net" agent="Mozilla/5.0 (Windows NT 10.0; Win64; x64) AppleWebKit/537.36 (KHTML, like Gecko) Chrome/131.0.0.0 Safari/537.36 Edg/131.0.0.0" version="24.8.6">
  <diagram name="Seite-1" id="KML-y1pZwPQG-cm2UpIH">
    <mxGraphModel dx="671" dy="365" grid="1" gridSize="10" guides="1" tooltips="1" connect="1" arrows="1" fold="1" page="1" pageScale="1" pageWidth="1169" pageHeight="1654" math="0" shadow="0">
      <root>
        <mxCell id="0" />
        <mxCell id="1" parent="0" />
        <mxCell id="Q28VvBy3h67f0ebGIVPd-3" value="" style="edgeStyle=orthogonalEdgeStyle;rounded=0;orthogonalLoop=1;jettySize=auto;html=1;entryX=-0.006;entryY=0.624;entryDx=0;entryDy=0;entryPerimeter=0;strokeColor=#ff00ff;" parent="1" source="TQm6dS169vfw1QDtVwA7-24" target="TQm6dS169vfw1QDtVwA7-19" edge="1">
          <mxGeometry relative="1" as="geometry" />
        </mxCell>
        <mxCell id="Q28VvBy3h67f0ebGIVPd-5" value="&amp;nbsp;write&amp;nbsp;" style="edgeLabel;html=1;align=center;verticalAlign=middle;resizable=0;points=[];fontSize=12;labelBorderColor=#ff00ff;" parent="Q28VvBy3h67f0ebGIVPd-3" vertex="1" connectable="0">
          <mxGeometry x="-0.2405" y="-2" relative="1" as="geometry">
            <mxPoint x="14" y="-2" as="offset" />
          </mxGeometry>
        </mxCell>
        <mxCell id="7N_agk7MGS3db1LfP_Yc-10" style="edgeStyle=orthogonalEdgeStyle;rounded=0;orthogonalLoop=1;jettySize=auto;html=1;exitX=0.25;exitY=1;exitDx=0;exitDy=0;entryX=0;entryY=0.5;entryDx=0;entryDy=0;fillColor=#1ba1e2;strokeColor=#0000cd;" parent="1" source="TQm6dS169vfw1QDtVwA7-24" target="7N_agk7MGS3db1LfP_Yc-7" edge="1">
          <mxGeometry relative="1" as="geometry">
            <Array as="points">
              <mxPoint x="395" y="230" />
              <mxPoint x="111" y="230" />
              <mxPoint x="111" y="420" />
            </Array>
          </mxGeometry>
        </mxCell>
        <mxCell id="7N_agk7MGS3db1LfP_Yc-12" value="&amp;nbsp;call(x)&amp;nbsp;" style="edgeLabel;html=1;align=center;verticalAlign=middle;resizable=0;points=[];fontSize=12;fontStyle=0;labelBorderColor=#0000FF;" parent="7N_agk7MGS3db1LfP_Yc-10" vertex="1" connectable="0">
          <mxGeometry x="-0.3852" y="-2" relative="1" as="geometry">
            <mxPoint x="-4" y="2" as="offset" />
          </mxGeometry>
        </mxCell>
        <mxCell id="TQm6dS169vfw1QDtVwA7-24" value="&lt;font style=&quot;font-size: 14px;&quot;&gt;biotsavart_asdex.py&lt;/font&gt;" style="swimlane;whiteSpace=wrap;html=1;startSize=30;fillColor=#f8cecc;gradientColor=#ea6b66;strokeColor=#b85450;" parent="1" vertex="1">
          <mxGeometry x="315" y="52.23" width="320" height="127.77" as="geometry" />
        </mxCell>
        <mxCell id="7N_agk7MGS3db1LfP_Yc-2" value="Calculate the magnetic field components on a grid defined in the file &#39;biotsavart.inp&#39; using the Biot-Savart law. The output is written to the file &#39;field.dat&#39;.&lt;div style=&quot;line-height: 80%;&quot;&gt;&lt;br&gt;&lt;/div&gt;&lt;div style=&quot;line-height: 80%;&quot;&gt;FUNCTIONS: -&lt;br&gt;&lt;div style=&quot;line-height: 80%;&quot;&gt;&lt;br&gt;&lt;/div&gt;&lt;div&gt;GLOBALS: -&lt;/div&gt;&lt;/div&gt;" style="text;html=1;align=left;verticalAlign=top;whiteSpace=wrap;rounded=0;horizontal=1;" parent="TQm6dS169vfw1QDtVwA7-24" vertex="1">
          <mxGeometry y="30" width="320" height="100" as="geometry" />
        </mxCell>
        <mxCell id="Q28VvBy3h67f0ebGIVPd-6" value="" style="endArrow=classic;html=1;rounded=0;exitX=1.005;exitY=0.624;exitDx=0;exitDy=0;exitPerimeter=0;strokeColor=#00ffff;" parent="1" source="TQm6dS169vfw1QDtVwA7-11" edge="1">
          <mxGeometry width="50" height="50" relative="1" as="geometry">
            <mxPoint x="245" y="116.99" as="sourcePoint" />
            <mxPoint x="315" y="116.99" as="targetPoint" />
          </mxGeometry>
        </mxCell>
        <mxCell id="Q28VvBy3h67f0ebGIVPd-7" value="&amp;nbsp;read&amp;nbsp;" style="edgeLabel;html=1;align=center;verticalAlign=middle;resizable=0;points=[];fontSize=12;labelBorderColor=#00FFFF;" parent="Q28VvBy3h67f0ebGIVPd-6" vertex="1" connectable="0">
          <mxGeometry x="-0.1918" y="-2" relative="1" as="geometry">
            <mxPoint y="-2" as="offset" />
          </mxGeometry>
        </mxCell>
        <mxCell id="7N_agk7MGS3db1LfP_Yc-11" style="edgeStyle=orthogonalEdgeStyle;rounded=0;orthogonalLoop=1;jettySize=auto;html=1;exitX=1;exitY=0.5;exitDx=0;exitDy=0;entryX=0.75;entryY=1;entryDx=0;entryDy=0;strokeColor=#ff0000;" parent="1" source="7N_agk7MGS3db1LfP_Yc-7" target="7N_agk7MGS3db1LfP_Yc-2" edge="1">
          <mxGeometry relative="1" as="geometry">
            <Array as="points">
              <mxPoint x="841" y="420" />
              <mxPoint x="841" y="230" />
              <mxPoint x="555" y="230" />
            </Array>
          </mxGeometry>
        </mxCell>
        <mxCell id="7N_agk7MGS3db1LfP_Yc-13" value="&amp;nbsp;return(bmod, sqrtg, bder, hcovar, hctrvr, hcurl)&amp;nbsp;" style="edgeLabel;html=1;align=center;verticalAlign=middle;resizable=0;points=[];fontSize=12;labelBorderColor=#ff0000;fontColor=#000000;" parent="7N_agk7MGS3db1LfP_Yc-11" vertex="1" connectable="0">
          <mxGeometry x="0.5549" y="-3" relative="1" as="geometry">
            <mxPoint x="62" y="3" as="offset" />
          </mxGeometry>
        </mxCell>
        <mxCell id="7N_agk7MGS3db1LfP_Yc-56" style="edgeStyle=orthogonalEdgeStyle;rounded=0;orthogonalLoop=1;jettySize=auto;html=1;exitX=1;exitY=0.5;exitDx=0;exitDy=0;entryX=0;entryY=0.5;entryDx=0;entryDy=0;entryPerimeter=0;strokeColor=#FF00FF;" parent="1" source="7N_agk7MGS3db1LfP_Yc-28" target="7N_agk7MGS3db1LfP_Yc-45" edge="1">
          <mxGeometry relative="1" as="geometry">
            <mxPoint x="921" y="555" as="targetPoint" />
          </mxGeometry>
        </mxCell>
        <mxCell id="7N_agk7MGS3db1LfP_Yc-57" value="&amp;nbsp;write&amp;nbsp;" style="edgeLabel;html=1;align=center;verticalAlign=middle;resizable=0;points=[];fontSize=12;labelBorderColor=#FF00FF;" parent="7N_agk7MGS3db1LfP_Yc-56" vertex="1" connectable="0">
          <mxGeometry x="0.1896" relative="1" as="geometry">
            <mxPoint as="offset" />
          </mxGeometry>
        </mxCell>
        <mxCell id="7N_agk7MGS3db1LfP_Yc-61" style="edgeStyle=orthogonalEdgeStyle;rounded=0;orthogonalLoop=1;jettySize=auto;html=1;exitX=0.5;exitY=0;exitDx=0;exitDy=0;exitPerimeter=0;entryX=0.25;entryY=1;entryDx=0;entryDy=0;strokeColor=#00ffff;" parent="1" source="7N_agk7MGS3db1LfP_Yc-53" target="7N_agk7MGS3db1LfP_Yc-32" edge="1">
          <mxGeometry relative="1" as="geometry" />
        </mxCell>
        <mxCell id="7N_agk7MGS3db1LfP_Yc-62" value="&amp;nbsp;read&amp;nbsp;" style="edgeLabel;html=1;align=center;verticalAlign=middle;resizable=0;points=[];fontSize=12;labelBorderColor=#00FFFF;" parent="7N_agk7MGS3db1LfP_Yc-61" vertex="1" connectable="0">
          <mxGeometry x="-0.3877" y="-3" relative="1" as="geometry">
            <mxPoint x="-3" y="-9" as="offset" />
          </mxGeometry>
        </mxCell>
        <mxCell id="7N_agk7MGS3db1LfP_Yc-63" style="edgeStyle=orthogonalEdgeStyle;rounded=0;orthogonalLoop=1;jettySize=auto;html=1;exitX=0.5;exitY=0;exitDx=0;exitDy=0;exitPerimeter=0;entryX=0.75;entryY=1;entryDx=0;entryDy=0;strokeColor=#00FFFF;" parent="1" source="7N_agk7MGS3db1LfP_Yc-49" target="7N_agk7MGS3db1LfP_Yc-32" edge="1">
          <mxGeometry relative="1" as="geometry" />
        </mxCell>
        <mxCell id="7N_agk7MGS3db1LfP_Yc-64" value="&amp;nbsp;read&amp;nbsp;" style="edgeLabel;html=1;align=center;verticalAlign=middle;resizable=0;points=[];fontSize=12;labelBorderColor=#00FFFF;" parent="7N_agk7MGS3db1LfP_Yc-63" vertex="1" connectable="0">
          <mxGeometry x="-0.2456" relative="1" as="geometry">
            <mxPoint as="offset" />
          </mxGeometry>
        </mxCell>
        <mxCell id="7N_agk7MGS3db1LfP_Yc-65" value="&lt;font style=&quot;font-size: 14px;&quot;&gt;plot_modes.py&lt;/font&gt;" style="swimlane;whiteSpace=wrap;html=1;startSize=30;fillColor=#f8cecc;gradientColor=#ea6b66;strokeColor=#b85450;" parent="1" vertex="1">
          <mxGeometry x="425" y="1052" width="320" height="150" as="geometry" />
        </mxCell>
        <mxCell id="7N_agk7MGS3db1LfP_Yc-66" value="Calculates the first n modes of the magnetic field for a grid with double the resolution of the one used for the Biot-Savart calculation. Creates a colorplot for the decadic logarithm of the square of the norm of the total magnetic field for each mode.&lt;div style=&quot;line-height: 80%;&quot;&gt;&lt;br&gt;&lt;/div&gt;&lt;div style=&quot;line-height: 80%;&quot;&gt;FUNCTIONS: -&lt;br&gt;&lt;div style=&quot;line-height: 80%;&quot;&gt;&lt;br&gt;&lt;/div&gt;&lt;div&gt;GLOBALS: -&lt;/div&gt;&lt;/div&gt;" style="text;html=1;align=left;verticalAlign=top;whiteSpace=wrap;rounded=0;horizontal=1;" parent="7N_agk7MGS3db1LfP_Yc-65" vertex="1">
          <mxGeometry y="30" width="320" height="120" as="geometry" />
        </mxCell>
        <mxCell id="7N_agk7MGS3db1LfP_Yc-67" value="&lt;font style=&quot;font-size: 14px;&quot;&gt;bdivfree.py&lt;/font&gt;" style="swimlane;whiteSpace=wrap;html=1;startSize=30;fillColor=#d5e8d4;gradientColor=#97d077;strokeColor=#82b366;" parent="1" vertex="1">
          <mxGeometry x="60" y="1250" width="1050" height="400" as="geometry" />
        </mxCell>
        <mxCell id="7N_agk7MGS3db1LfP_Yc-68" value="&lt;div&gt;Module for calculating the divergence-free n&#39;th mode of the magnetic field from the input paramters and the magnetic field calculation output.&amp;nbsp;&lt;/div&gt;&lt;div&gt;FUNCTIONS: field_c, read_field4, vector_potentials and field_divfree&lt;/div&gt;&lt;div style=&quot;line-height: 80%;&quot;&gt;&lt;br&gt;&lt;div style=&quot;line-height: 80%;&quot;&gt;GLOBALS:&amp;nbsp;&lt;span style=&quot;background-color: initial;&quot;&gt;AnR_Im, AnR_Re, AnZ_Im, AnZ_Re,&amp;nbsp;&lt;/span&gt;&lt;span style=&quot;background-color: initial;&quot;&gt;icall_c,&lt;/span&gt;&lt;span style=&quot;background-color: initial;&quot;&gt;&amp;nbsp;nphi,&lt;/span&gt;&lt;span style=&quot;background-color: initial;&quot;&gt;&amp;nbsp;&lt;/span&gt;&lt;span style=&quot;background-color: initial;&quot;&gt;nR,&lt;/span&gt;&lt;span style=&quot;background-color: initial;&quot;&gt;&amp;nbsp;nZ&lt;/span&gt;&lt;span style=&quot;background-color: initial;&quot;&gt;, phi_max, phi_min&lt;/span&gt;&lt;span style=&quot;background-color: initial;&quot;&gt;, R_max, R_min, Z_max and Z_min&lt;/span&gt;&lt;/div&gt;&lt;/div&gt;" style="text;html=1;align=left;verticalAlign=top;whiteSpace=wrap;rounded=0;horizontal=1;" parent="7N_agk7MGS3db1LfP_Yc-67" vertex="1">
          <mxGeometry y="30" width="1050" height="360" as="geometry" />
        </mxCell>
        <mxCell id="7N_agk7MGS3db1LfP_Yc-129" style="edgeStyle=orthogonalEdgeStyle;rounded=0;orthogonalLoop=1;jettySize=auto;html=1;exitX=0;exitY=0.25;exitDx=0;exitDy=0;strokeColor=#0000cd;" parent="7N_agk7MGS3db1LfP_Yc-67" source="7N_agk7MGS3db1LfP_Yc-79" edge="1">
          <mxGeometry relative="1" as="geometry">
            <mxPoint x="60" y="225" as="targetPoint" />
            <Array as="points">
              <mxPoint x="213" y="158" />
              <mxPoint x="60" y="158" />
            </Array>
          </mxGeometry>
        </mxCell>
        <mxCell id="7N_agk7MGS3db1LfP_Yc-131" value="&lt;font style=&quot;font-size: 12px;&quot;&gt;&amp;nbsp;call(R, Z, n, AnR_Re, AnR_Im, AnZ_Re, AnZ_Im)&amp;nbsp;&lt;/font&gt;" style="edgeLabel;html=1;align=center;verticalAlign=middle;resizable=0;points=[];labelBorderColor=#0000ff;" parent="7N_agk7MGS3db1LfP_Yc-129" vertex="1" connectable="0">
          <mxGeometry x="0.1293" y="1" relative="1" as="geometry">
            <mxPoint x="38" as="offset" />
          </mxGeometry>
        </mxCell>
        <mxCell id="7N_agk7MGS3db1LfP_Yc-79" value="field_c" style="swimlane;horizontal=0;whiteSpace=wrap;html=1;fillColor=#ffcd28;gradientColor=#ffa500;strokeColor=#d79b00;" parent="7N_agk7MGS3db1LfP_Yc-67" vertex="1">
          <mxGeometry x="390" y="135" width="270" height="90" as="geometry">
            <mxRectangle x="23" y="140" width="40" height="70" as="alternateBounds" />
          </mxGeometry>
        </mxCell>
        <mxCell id="7N_agk7MGS3db1LfP_Yc-80" value="Evaluate the n&#39;th mode of the magnetic field at the given grid points (R, Z).&lt;div style=&quot;line-height: 80%;&quot;&gt;&lt;br&gt;&lt;div style=&quot;line-height: 120%;&quot;&gt;GLOBALS:&amp;nbsp;&lt;span style=&quot;background-color: initial;&quot;&gt;AnR_Im(&lt;font color=&quot;#ff0000&quot;&gt;C&lt;/font&gt;&lt;font color=&quot;#00ff00&quot;&gt;R&lt;/font&gt;&lt;font color=&quot;#0000ff&quot;&gt;W&lt;/font&gt;), AnR_Re&lt;/span&gt;&lt;span style=&quot;background-color: initial;&quot;&gt;(&lt;font color=&quot;#ff0000&quot;&gt;C&lt;/font&gt;&lt;font color=&quot;#00ff00&quot;&gt;R&lt;/font&gt;&lt;font color=&quot;#0000ff&quot;&gt;W&lt;/font&gt;)&lt;/span&gt;&lt;span style=&quot;background-color: initial;&quot;&gt;, AnZ_Im&lt;/span&gt;&lt;span style=&quot;background-color: initial;&quot;&gt;(&lt;font color=&quot;#ff0000&quot;&gt;C&lt;/font&gt;&lt;font color=&quot;#00ff00&quot;&gt;R&lt;/font&gt;&lt;font color=&quot;#0000ff&quot;&gt;W&lt;/font&gt;)&lt;/span&gt;&lt;span style=&quot;background-color: initial;&quot;&gt;, AnZ_Re&lt;/span&gt;&lt;span style=&quot;background-color: initial;&quot;&gt;(&lt;font color=&quot;#ff0000&quot;&gt;C&lt;/font&gt;&lt;font color=&quot;#00ff00&quot;&gt;R&lt;/font&gt;&lt;font color=&quot;#0000ff&quot;&gt;W&lt;/font&gt;)&lt;/span&gt;&lt;span style=&quot;background-color: initial;&quot;&gt;,&amp;nbsp;&lt;/span&gt;&lt;span style=&quot;background-color: initial;&quot;&gt;icall_c&lt;/span&gt;&lt;span style=&quot;background-color: initial;&quot;&gt;(&lt;font color=&quot;#ff0000&quot;&gt;C&lt;/font&gt;&lt;font color=&quot;#00ff00&quot;&gt;R&lt;/font&gt;&lt;font color=&quot;#0000ff&quot;&gt;W&lt;/font&gt;)&lt;/span&gt;&lt;/div&gt;&lt;/div&gt;" style="text;html=1;align=left;verticalAlign=top;whiteSpace=wrap;rounded=0;" parent="7N_agk7MGS3db1LfP_Yc-79" vertex="1">
          <mxGeometry x="24" width="246" height="90" as="geometry" />
        </mxCell>
        <mxCell id="7N_agk7MGS3db1LfP_Yc-93" value="vector_potentials" style="swimlane;horizontal=0;whiteSpace=wrap;html=1;container=0;fillColor=#ffcd28;strokeColor=#d79b00;gradientColor=#ffa500;" parent="7N_agk7MGS3db1LfP_Yc-67" vertex="1">
          <mxGeometry x="332" y="270" width="385" height="120" as="geometry">
            <mxRectangle x="23" y="140" width="40" height="70" as="alternateBounds" />
          </mxGeometry>
        </mxCell>
        <mxCell id="7N_agk7MGS3db1LfP_Yc-97" value="read_field4" style="swimlane;horizontal=0;whiteSpace=wrap;html=1;container=0;fillColor=#ffcd28;strokeColor=#d79b00;gradientColor=#ffa500;" parent="7N_agk7MGS3db1LfP_Yc-67" vertex="1">
          <mxGeometry x="770" y="225" width="265" height="125" as="geometry">
            <mxRectangle x="23" y="140" width="40" height="70" as="alternateBounds" />
          </mxGeometry>
        </mxCell>
        <mxCell id="7N_agk7MGS3db1LfP_Yc-107" value="field_divfree" style="swimlane;horizontal=0;whiteSpace=wrap;html=1;container=0;fillColor=#ffcd28;strokeColor=#d79b00;gradientColor=#ffa500;" parent="7N_agk7MGS3db1LfP_Yc-67" vertex="1">
          <mxGeometry x="15" y="225" width="280" height="125" as="geometry">
            <mxRectangle x="23" y="140" width="40" height="70" as="alternateBounds" />
          </mxGeometry>
        </mxCell>
        <mxCell id="7N_agk7MGS3db1LfP_Yc-130" style="edgeStyle=orthogonalEdgeStyle;rounded=0;orthogonalLoop=1;jettySize=auto;html=1;exitX=0.5;exitY=0;exitDx=0;exitDy=0;entryX=0;entryY=0.5;entryDx=0;entryDy=0;strokeColor=#ff0000;" parent="7N_agk7MGS3db1LfP_Yc-67" source="7N_agk7MGS3db1LfP_Yc-108" target="7N_agk7MGS3db1LfP_Yc-79" edge="1">
          <mxGeometry relative="1" as="geometry" />
        </mxCell>
        <mxCell id="7N_agk7MGS3db1LfP_Yc-132" value="&lt;font style=&quot;font-size: 12px;&quot;&gt;&amp;nbsp;return(squeeze(BnR), squeeze(Bnphi), squeeze(BnZ))&amp;nbsp;&lt;/font&gt;" style="edgeLabel;html=1;align=center;verticalAlign=middle;resizable=0;points=[];labelBorderColor=#ff0000;" parent="7N_agk7MGS3db1LfP_Yc-130" vertex="1" connectable="0">
          <mxGeometry x="0.0608" y="3" relative="1" as="geometry">
            <mxPoint x="-46" y="23" as="offset" />
          </mxGeometry>
        </mxCell>
        <mxCell id="7N_agk7MGS3db1LfP_Yc-135" style="edgeStyle=orthogonalEdgeStyle;rounded=0;orthogonalLoop=1;jettySize=auto;html=1;exitX=0.785;exitY=-0.006;exitDx=0;exitDy=0;entryX=0.902;entryY=1.008;entryDx=0;entryDy=0;entryPerimeter=0;exitPerimeter=0;strokeColor=#ff0000;" parent="7N_agk7MGS3db1LfP_Yc-67" source="7N_agk7MGS3db1LfP_Yc-94" target="7N_agk7MGS3db1LfP_Yc-80" edge="1">
          <mxGeometry relative="1" as="geometry" />
        </mxCell>
        <mxCell id="7N_agk7MGS3db1LfP_Yc-136" value="&lt;font style=&quot;font-size: 12px;&quot;&gt;&amp;nbsp;return(AnR_Re, AnR_Im, AnZ_Re, AnZ_Im)&amp;nbsp;&lt;/font&gt;" style="edgeLabel;html=1;align=center;verticalAlign=middle;resizable=0;points=[];labelBorderColor=#ff0000;" parent="7N_agk7MGS3db1LfP_Yc-135" vertex="1" connectable="0">
          <mxGeometry x="-0.1786" y="-1" relative="1" as="geometry">
            <mxPoint y="-5" as="offset" />
          </mxGeometry>
        </mxCell>
        <mxCell id="7N_agk7MGS3db1LfP_Yc-139" style="edgeStyle=orthogonalEdgeStyle;rounded=0;orthogonalLoop=1;jettySize=auto;html=1;exitX=0.049;exitY=0.995;exitDx=0;exitDy=0;entryX=0.134;entryY=-0.024;entryDx=0;entryDy=0;entryPerimeter=0;exitPerimeter=0;strokeColor=#0000cd;" parent="7N_agk7MGS3db1LfP_Yc-67" source="7N_agk7MGS3db1LfP_Yc-79" target="7N_agk7MGS3db1LfP_Yc-94" edge="1">
          <mxGeometry relative="1" as="geometry" />
        </mxCell>
        <mxCell id="7N_agk7MGS3db1LfP_Yc-140" value="&lt;span style=&quot;font-size: 12px;&quot;&gt;&amp;nbsp;call(n_max, BnR, Bnphi, BnZ)&amp;nbsp;&lt;/span&gt;" style="edgeLabel;html=1;align=center;verticalAlign=middle;resizable=0;points=[];labelBorderColor=#0000ff;" parent="7N_agk7MGS3db1LfP_Yc-139" vertex="1" connectable="0">
          <mxGeometry x="-0.0299" y="-1" relative="1" as="geometry">
            <mxPoint y="1" as="offset" />
          </mxGeometry>
        </mxCell>
        <mxCell id="7N_agk7MGS3db1LfP_Yc-141" style="edgeStyle=orthogonalEdgeStyle;rounded=0;orthogonalLoop=1;jettySize=auto;html=1;exitX=1;exitY=0.25;exitDx=0;exitDy=0;entryX=0.908;entryY=-0.005;entryDx=0;entryDy=0;entryPerimeter=0;strokeColor=#0000cd;" parent="7N_agk7MGS3db1LfP_Yc-67" source="7N_agk7MGS3db1LfP_Yc-80" target="7N_agk7MGS3db1LfP_Yc-98" edge="1">
          <mxGeometry relative="1" as="geometry" />
        </mxCell>
        <mxCell id="7N_agk7MGS3db1LfP_Yc-144" value="&lt;font style=&quot;font-size: 12px;&quot;&gt;&amp;nbsp;call()&amp;nbsp;&lt;/font&gt;" style="edgeLabel;html=1;align=center;verticalAlign=middle;resizable=0;points=[];fontSize=12;labelBorderColor=#0000ff;" parent="7N_agk7MGS3db1LfP_Yc-141" vertex="1" connectable="0">
          <mxGeometry x="-0.3886" y="2" relative="1" as="geometry">
            <mxPoint as="offset" />
          </mxGeometry>
        </mxCell>
        <mxCell id="7N_agk7MGS3db1LfP_Yc-142" style="edgeStyle=orthogonalEdgeStyle;rounded=0;orthogonalLoop=1;jettySize=auto;html=1;exitX=0.5;exitY=0;exitDx=0;exitDy=0;entryX=1;entryY=0.5;entryDx=0;entryDy=0;strokeColor=#ff0000;" parent="7N_agk7MGS3db1LfP_Yc-67" source="7N_agk7MGS3db1LfP_Yc-98" target="7N_agk7MGS3db1LfP_Yc-80" edge="1">
          <mxGeometry relative="1" as="geometry" />
        </mxCell>
        <mxCell id="7N_agk7MGS3db1LfP_Yc-145" value="&lt;font style=&quot;font-size: 12px;&quot;&gt;&amp;nbsp;return(BR, Bphi, BZ)&amp;nbsp;&lt;/font&gt;" style="edgeLabel;html=1;align=center;verticalAlign=middle;resizable=0;points=[];labelBorderColor=#ff0000;" parent="7N_agk7MGS3db1LfP_Yc-142" vertex="1" connectable="0">
          <mxGeometry x="0.2024" y="-1" relative="1" as="geometry">
            <mxPoint as="offset" />
          </mxGeometry>
        </mxCell>
        <mxCell id="7N_agk7MGS3db1LfP_Yc-108" value="Calculate the n&#39;th mode of the magnetic field from the modes of the vector potential components and make it divergence-free.&lt;div style=&quot;line-height: 80%;&quot;&gt;&lt;br&gt;&lt;div style=&quot;line-height: 120%;&quot;&gt;GLOBALS:&amp;nbsp;&lt;span style=&quot;background-color: initial;&quot;&gt;AnR_Im(&lt;font color=&quot;#00ff00&quot;&gt;R&lt;/font&gt;), AnR_Re&lt;/span&gt;&lt;span style=&quot;background-color: initial;&quot;&gt;(&lt;/span&gt;&lt;span style=&quot;color: rgb(0, 255, 0);&quot;&gt;R&lt;/span&gt;&lt;span style=&quot;background-color: initial;&quot;&gt;)&lt;/span&gt;&lt;span style=&quot;background-color: initial;&quot;&gt;, AnZ_Im&lt;/span&gt;&lt;span style=&quot;background-color: initial;&quot;&gt;(&lt;/span&gt;&lt;span style=&quot;color: rgb(0, 255, 0);&quot;&gt;R&lt;/span&gt;&lt;span style=&quot;background-color: initial;&quot;&gt;)&lt;/span&gt;&lt;span style=&quot;background-color: initial;&quot;&gt;, AnZ_Re&lt;/span&gt;&lt;span style=&quot;background-color: initial;&quot;&gt;(&lt;/span&gt;&lt;span style=&quot;color: rgb(0, 255, 0);&quot;&gt;R&lt;/span&gt;&lt;span style=&quot;background-color: initial;&quot;&gt;)&lt;/span&gt;&lt;span style=&quot;background-color: initial;&quot;&gt;,&amp;nbsp;&lt;/span&gt;&lt;span style=&quot;background-color: initial;&quot;&gt;nphi(&lt;font color=&quot;#ff0000&quot;&gt;C&lt;/font&gt;),&lt;/span&gt;&lt;span style=&quot;background-color: initial;&quot;&gt;&amp;nbsp;&lt;/span&gt;&lt;span style=&quot;background-color: initial;&quot;&gt;nR&lt;/span&gt;&lt;span style=&quot;background-color: initial;&quot;&gt;(&lt;font color=&quot;#ff0000&quot;&gt;C&lt;/font&gt;)&lt;/span&gt;&lt;span style=&quot;background-color: initial;&quot;&gt;,&lt;/span&gt;&lt;span style=&quot;background-color: initial;&quot;&gt;&amp;nbsp;nZ&lt;/span&gt;&lt;span style=&quot;background-color: initial;&quot;&gt;(&lt;font color=&quot;#ff0000&quot;&gt;C&lt;/font&gt;)&lt;/span&gt;&lt;span style=&quot;background-color: initial;&quot;&gt;, phi_max&lt;/span&gt;&lt;span style=&quot;background-color: initial;&quot;&gt;(&lt;font color=&quot;#ff0000&quot;&gt;C&lt;/font&gt;)&lt;/span&gt;&lt;span style=&quot;background-color: initial;&quot;&gt;, phi_min&lt;/span&gt;&lt;span style=&quot;background-color: initial;&quot;&gt;(&lt;font color=&quot;#ff0000&quot;&gt;C&lt;/font&gt;)&lt;/span&gt;&lt;span style=&quot;background-color: initial;&quot;&gt;, R_max&lt;/span&gt;&lt;span style=&quot;background-color: initial;&quot;&gt;(&lt;font color=&quot;#ff0000&quot;&gt;C&lt;/font&gt;)&lt;/span&gt;&lt;span style=&quot;background-color: initial;&quot;&gt;, R_min&lt;/span&gt;&lt;span style=&quot;background-color: initial;&quot;&gt;(&lt;font color=&quot;#ff0000&quot;&gt;C&lt;/font&gt;)&lt;/span&gt;&lt;span style=&quot;background-color: initial;&quot;&gt;, Z_max&lt;/span&gt;&lt;span style=&quot;background-color: initial;&quot;&gt;(&lt;font color=&quot;#ff0000&quot;&gt;C&lt;/font&gt;)&lt;/span&gt;&lt;span style=&quot;background-color: initial;&quot;&gt;, Z_min&lt;/span&gt;&lt;span style=&quot;background-color: initial;&quot;&gt;(&lt;font color=&quot;#ff0000&quot;&gt;C&lt;/font&gt;)&lt;/span&gt;&lt;/div&gt;&lt;/div&gt;" style="text;html=1;align=left;verticalAlign=top;whiteSpace=wrap;rounded=0;" parent="7N_agk7MGS3db1LfP_Yc-67" vertex="1">
          <mxGeometry x="39" y="225" width="256" height="110" as="geometry" />
        </mxCell>
        <mxCell id="7N_agk7MGS3db1LfP_Yc-94" value="Calculate the first n_max modes of the R- and Z-components of the vector potential&lt;span style=&quot;background-color: initial;&quot;&gt;&amp;nbsp;using fourier transformation and B=rot(A). Perform&amp;nbsp;&lt;/span&gt;&lt;span style=&quot;background-color: initial;&quot;&gt;a bivariate spline approximation to be able to evaluate the vector potential for every point and not just for the given grid.&lt;/span&gt;&lt;div&gt;&lt;div&gt;&lt;div style=&quot;line-height: 80%;&quot;&gt;&lt;br&gt;&lt;div style=&quot;line-height: 120%;&quot;&gt;GLOBALS:&amp;nbsp;&lt;span style=&quot;background-color: initial;&quot;&gt;AnR_Im(&lt;font color=&quot;#00ff00&quot;&gt;R&lt;/font&gt;&lt;font color=&quot;#0000ff&quot;&gt;W&lt;/font&gt;), AnR_Re&lt;/span&gt;&lt;span style=&quot;background-color: initial;&quot;&gt;(&lt;/span&gt;&lt;font color=&quot;#00ff00&quot;&gt;R&lt;/font&gt;&lt;font color=&quot;#0000ff&quot;&gt;W&lt;/font&gt;&lt;span style=&quot;background-color: initial;&quot;&gt;)&lt;/span&gt;&lt;span style=&quot;background-color: initial;&quot;&gt;, AnZ_Im&lt;/span&gt;&lt;span style=&quot;background-color: initial;&quot;&gt;(&lt;/span&gt;&lt;font color=&quot;#00ff00&quot;&gt;R&lt;/font&gt;&lt;font color=&quot;#0000ff&quot;&gt;W&lt;/font&gt;&lt;span style=&quot;background-color: initial;&quot;&gt;)&lt;/span&gt;&lt;span style=&quot;background-color: initial;&quot;&gt;, AnZ_Re&lt;/span&gt;&lt;span style=&quot;background-color: initial;&quot;&gt;(&lt;/span&gt;&lt;font color=&quot;#00ff00&quot;&gt;R&lt;/font&gt;&lt;font color=&quot;#0000ff&quot;&gt;W&lt;/font&gt;&lt;span style=&quot;background-color: initial;&quot;&gt;)&lt;/span&gt;&lt;span style=&quot;background-color: initial;&quot;&gt;,&amp;nbsp;&lt;/span&gt;&lt;span style=&quot;background-color: initial;&quot;&gt;nphi(&lt;font color=&quot;#ff0000&quot;&gt;C&lt;/font&gt;&lt;/span&gt;&lt;font color=&quot;#00ff00&quot;&gt;R&lt;/font&gt;&lt;span style=&quot;background-color: initial;&quot;&gt;),&lt;/span&gt;&lt;span style=&quot;background-color: initial;&quot;&gt;&amp;nbsp;&lt;/span&gt;&lt;span style=&quot;background-color: initial;&quot;&gt;nR&lt;/span&gt;&lt;span style=&quot;background-color: initial;&quot;&gt;(&lt;font color=&quot;#ff0000&quot;&gt;C&lt;/font&gt;&lt;/span&gt;&lt;font color=&quot;#00ff00&quot;&gt;R&lt;/font&gt;&lt;span style=&quot;background-color: initial;&quot;&gt;)&lt;/span&gt;&lt;span style=&quot;background-color: initial;&quot;&gt;,&lt;/span&gt;&lt;span style=&quot;background-color: initial;&quot;&gt;&amp;nbsp;nZ&lt;/span&gt;&lt;span style=&quot;background-color: initial;&quot;&gt;(&lt;/span&gt;&lt;span style=&quot;color: rgb(255, 0, 0);&quot;&gt;C&lt;/span&gt;&lt;font color=&quot;#00ff00&quot;&gt;R&lt;/font&gt;&lt;span style=&quot;background-color: initial;&quot;&gt;)&lt;/span&gt;&lt;span style=&quot;background-color: initial;&quot;&gt;, phi_max&lt;/span&gt;&lt;span style=&quot;background-color: initial;&quot;&gt;(&lt;font color=&quot;#ff0000&quot;&gt;C&lt;/font&gt;)&lt;/span&gt;&lt;span style=&quot;background-color: initial;&quot;&gt;, phi_min&lt;/span&gt;&lt;span style=&quot;background-color: initial;&quot;&gt;(&lt;font color=&quot;#ff0000&quot;&gt;C&lt;/font&gt;)&lt;/span&gt;&lt;span style=&quot;background-color: initial;&quot;&gt;, R_max&lt;/span&gt;&lt;span style=&quot;background-color: initial;&quot;&gt;(&lt;font color=&quot;#ff0000&quot;&gt;C&lt;/font&gt;&lt;font color=&quot;#00ff00&quot;&gt;R&lt;/font&gt;)&lt;/span&gt;&lt;span style=&quot;background-color: initial;&quot;&gt;, R_min&lt;/span&gt;&lt;span style=&quot;background-color: initial;&quot;&gt;(&lt;/span&gt;&lt;font color=&quot;#ff0000&quot;&gt;C&lt;/font&gt;&lt;font color=&quot;#00ff00&quot;&gt;R&lt;/font&gt;&lt;span style=&quot;background-color: initial;&quot;&gt;)&lt;/span&gt;&lt;span style=&quot;background-color: initial;&quot;&gt;, Z_max&lt;/span&gt;&lt;span style=&quot;background-color: initial;&quot;&gt;(&lt;/span&gt;&lt;font color=&quot;#ff0000&quot;&gt;C&lt;/font&gt;&lt;font color=&quot;#00ff00&quot;&gt;R&lt;/font&gt;&lt;span style=&quot;background-color: initial;&quot;&gt;)&lt;/span&gt;&lt;span style=&quot;background-color: initial;&quot;&gt;, Z_min&lt;/span&gt;&lt;span style=&quot;background-color: initial;&quot;&gt;(&lt;/span&gt;&lt;font color=&quot;#ff0000&quot;&gt;C&lt;/font&gt;&lt;font color=&quot;#00ff00&quot;&gt;R&lt;/font&gt;&lt;span style=&quot;background-color: initial;&quot;&gt;)&lt;/span&gt;&lt;/div&gt;&lt;/div&gt;&lt;/div&gt;&lt;/div&gt;" style="text;html=1;align=left;verticalAlign=top;whiteSpace=wrap;rounded=0;" parent="7N_agk7MGS3db1LfP_Yc-67" vertex="1">
          <mxGeometry x="356" y="270" width="354" height="110" as="geometry" />
        </mxCell>
        <mxCell id="7N_agk7MGS3db1LfP_Yc-98" value="Get the magnetic field components for each grid point from the output file field.dat.&lt;div style=&quot;line-height: 80%;&quot;&gt;&lt;br&gt;&lt;div style=&quot;line-height: 120%;&quot;&gt;GLOBALS:&amp;nbsp;&lt;span style=&quot;background-color: initial;&quot;&gt;nphi(&lt;/span&gt;&lt;font color=&quot;#ff0000&quot;&gt;C&lt;/font&gt;&lt;font color=&quot;#00ff00&quot;&gt;R&lt;/font&gt;&lt;span style=&quot;background-color: initial;&quot;&gt;&lt;font color=&quot;#0000ff&quot;&gt;W&lt;/font&gt;),&lt;/span&gt;&lt;span style=&quot;background-color: initial;&quot;&gt;&amp;nbsp;&lt;/span&gt;&lt;span style=&quot;background-color: initial;&quot;&gt;nR&lt;/span&gt;&lt;span style=&quot;background-color: initial;&quot;&gt;(&lt;/span&gt;&lt;font color=&quot;#ff0000&quot;&gt;C&lt;/font&gt;&lt;font color=&quot;#00ff00&quot;&gt;R&lt;/font&gt;&lt;span style=&quot;color: rgb(0, 0, 255);&quot;&gt;W&lt;/span&gt;&lt;span style=&quot;background-color: initial;&quot;&gt;)&lt;/span&gt;&lt;span style=&quot;background-color: initial;&quot;&gt;,&lt;/span&gt;&lt;span style=&quot;background-color: initial;&quot;&gt;&amp;nbsp;nZ&lt;/span&gt;&lt;span style=&quot;background-color: initial;&quot;&gt;(&lt;/span&gt;&lt;font color=&quot;#ff0000&quot;&gt;C&lt;/font&gt;&lt;font color=&quot;#00ff00&quot;&gt;R&lt;/font&gt;&lt;span style=&quot;color: rgb(0, 0, 255);&quot;&gt;W&lt;/span&gt;&lt;span style=&quot;background-color: initial;&quot;&gt;)&lt;/span&gt;&lt;span style=&quot;background-color: initial;&quot;&gt;, phi_max&lt;/span&gt;&lt;span style=&quot;background-color: initial;&quot;&gt;(&lt;font color=&quot;#ff0000&quot;&gt;C&lt;/font&gt;&lt;/span&gt;&lt;span style=&quot;color: rgb(0, 0, 255);&quot;&gt;W&lt;/span&gt;&lt;span style=&quot;background-color: initial;&quot;&gt;)&lt;/span&gt;&lt;span style=&quot;background-color: initial;&quot;&gt;, phi_min&lt;/span&gt;&lt;span style=&quot;background-color: initial;&quot;&gt;(&lt;font color=&quot;#ff0000&quot;&gt;C&lt;/font&gt;&lt;/span&gt;&lt;span style=&quot;color: rgb(0, 0, 255);&quot;&gt;W&lt;/span&gt;&lt;span style=&quot;background-color: initial;&quot;&gt;)&lt;/span&gt;&lt;span style=&quot;background-color: initial;&quot;&gt;, R_max&lt;/span&gt;&lt;span style=&quot;background-color: initial;&quot;&gt;(&lt;font color=&quot;#ff0000&quot;&gt;C&lt;/font&gt;&lt;/span&gt;&lt;span style=&quot;color: rgb(0, 0, 255);&quot;&gt;W&lt;/span&gt;&lt;span style=&quot;background-color: initial;&quot;&gt;)&lt;/span&gt;&lt;span style=&quot;background-color: initial;&quot;&gt;, R_min&lt;/span&gt;&lt;span style=&quot;background-color: initial;&quot;&gt;(&lt;font color=&quot;#ff0000&quot;&gt;C&lt;/font&gt;&lt;/span&gt;&lt;span style=&quot;color: rgb(0, 0, 255);&quot;&gt;W&lt;/span&gt;&lt;span style=&quot;background-color: initial;&quot;&gt;)&lt;/span&gt;&lt;span style=&quot;background-color: initial;&quot;&gt;, Z_max&lt;/span&gt;&lt;span style=&quot;background-color: initial;&quot;&gt;(&lt;font color=&quot;#ff0000&quot;&gt;C&lt;/font&gt;&lt;/span&gt;&lt;span style=&quot;color: rgb(0, 0, 255);&quot;&gt;W&lt;/span&gt;&lt;span style=&quot;background-color: initial;&quot;&gt;)&lt;/span&gt;&lt;span style=&quot;background-color: initial;&quot;&gt;, Z_min&lt;/span&gt;&lt;span style=&quot;background-color: initial;&quot;&gt;(&lt;font color=&quot;#ff0000&quot;&gt;C&lt;/font&gt;&lt;/span&gt;&lt;span style=&quot;color: rgb(0, 0, 255);&quot;&gt;W&lt;/span&gt;&lt;span style=&quot;background-color: initial;&quot;&gt;)&lt;/span&gt;&lt;/div&gt;&lt;/div&gt;" style="text;html=1;align=left;verticalAlign=top;whiteSpace=wrap;rounded=0;" parent="7N_agk7MGS3db1LfP_Yc-67" vertex="1">
          <mxGeometry x="794" y="225" width="236" height="110" as="geometry" />
        </mxCell>
        <mxCell id="7N_agk7MGS3db1LfP_Yc-112" style="edgeStyle=orthogonalEdgeStyle;rounded=0;orthogonalLoop=1;jettySize=auto;html=1;exitX=0.25;exitY=1;exitDx=0;exitDy=0;entryX=0.25;entryY=0;entryDx=0;entryDy=0;strokeColor=#0000ff;" parent="1" source="7N_agk7MGS3db1LfP_Yc-66" target="7N_agk7MGS3db1LfP_Yc-80" edge="1">
          <mxGeometry relative="1" as="geometry">
            <Array as="points">
              <mxPoint x="505" y="1220" />
              <mxPoint x="30" y="1220" />
              <mxPoint x="30" y="1370" />
              <mxPoint x="535" y="1370" />
            </Array>
          </mxGeometry>
        </mxCell>
        <mxCell id="7N_agk7MGS3db1LfP_Yc-124" value="&amp;nbsp;call(R, Z, n)&amp;nbsp;" style="edgeLabel;html=1;align=center;verticalAlign=middle;resizable=0;points=[];fontSize=12;labelBorderColor=#0000FF;" parent="7N_agk7MGS3db1LfP_Yc-112" vertex="1" connectable="0">
          <mxGeometry x="-0.6266" y="-1" relative="1" as="geometry">
            <mxPoint as="offset" />
          </mxGeometry>
        </mxCell>
        <mxCell id="7N_agk7MGS3db1LfP_Yc-113" style="edgeStyle=orthogonalEdgeStyle;rounded=0;orthogonalLoop=1;jettySize=auto;html=1;exitX=0.75;exitY=0;exitDx=0;exitDy=0;entryX=0.75;entryY=1;entryDx=0;entryDy=0;strokeColor=#ff0000;" parent="1" source="7N_agk7MGS3db1LfP_Yc-80" target="7N_agk7MGS3db1LfP_Yc-66" edge="1">
          <mxGeometry relative="1" as="geometry">
            <Array as="points">
              <mxPoint x="659" y="1370" />
              <mxPoint x="1130" y="1370" />
              <mxPoint x="1130" y="1220" />
              <mxPoint x="665" y="1220" />
            </Array>
          </mxGeometry>
        </mxCell>
        <mxCell id="7N_agk7MGS3db1LfP_Yc-125" value="&lt;font style=&quot;font-size: 12px;&quot;&gt;&amp;nbsp;return(BnR, Bnphi, BnZ)&lt;/font&gt;" style="edgeLabel;html=1;align=center;verticalAlign=middle;resizable=0;points=[];labelBorderColor=#ff0000;" parent="7N_agk7MGS3db1LfP_Yc-113" vertex="1" connectable="0">
          <mxGeometry x="0.6638" y="-1" relative="1" as="geometry">
            <mxPoint as="offset" />
          </mxGeometry>
        </mxCell>
        <mxCell id="7N_agk7MGS3db1LfP_Yc-122" style="edgeStyle=orthogonalEdgeStyle;rounded=0;orthogonalLoop=1;jettySize=auto;html=1;exitX=0;exitY=0.5;exitDx=0;exitDy=0;strokeColor=#00FFFF;" parent="1" source="TQm6dS169vfw1QDtVwA7-15" edge="1">
          <mxGeometry relative="1" as="geometry">
            <mxPoint x="425" y="1130" as="targetPoint" />
            <Array as="points">
              <mxPoint x="30" y="117" />
              <mxPoint x="30" y="1130" />
            </Array>
            <mxPoint x="132.6400000000001" y="643" as="sourcePoint" />
          </mxGeometry>
        </mxCell>
        <mxCell id="7N_agk7MGS3db1LfP_Yc-123" value="&lt;font style=&quot;font-size: 12px;&quot;&gt;&amp;nbsp;read&amp;nbsp;&lt;/font&gt;" style="edgeLabel;html=1;align=center;verticalAlign=middle;resizable=0;points=[];labelBorderColor=#00FFFF;" parent="7N_agk7MGS3db1LfP_Yc-122" vertex="1" connectable="0">
          <mxGeometry x="0.8752" y="4" relative="1" as="geometry">
            <mxPoint x="-102" y="3" as="offset" />
          </mxGeometry>
        </mxCell>
        <mxCell id="7N_agk7MGS3db1LfP_Yc-126" style="edgeStyle=orthogonalEdgeStyle;rounded=0;orthogonalLoop=1;jettySize=auto;html=1;strokeColor=#00FFFF;" parent="1" edge="1">
          <mxGeometry relative="1" as="geometry">
            <mxPoint x="880" y="117" as="sourcePoint" />
            <mxPoint x="1095" y="1540" as="targetPoint" />
            <Array as="points">
              <mxPoint x="1160" y="117" />
              <mxPoint x="1160" y="1540" />
              <mxPoint x="1095" y="1540" />
            </Array>
          </mxGeometry>
        </mxCell>
        <mxCell id="7N_agk7MGS3db1LfP_Yc-127" value="&lt;font style=&quot;font-size: 12px;&quot;&gt;&amp;nbsp;read&amp;nbsp;&lt;/font&gt;" style="edgeLabel;html=1;align=center;verticalAlign=middle;resizable=0;points=[];fontSize=12;labelBorderColor=#00FFFF;" parent="7N_agk7MGS3db1LfP_Yc-126" vertex="1" connectable="0">
          <mxGeometry x="0.9328" y="1" relative="1" as="geometry">
            <mxPoint x="-21" y="-1" as="offset" />
          </mxGeometry>
        </mxCell>
        <mxCell id="7N_agk7MGS3db1LfP_Yc-146" value="&lt;font style=&quot;font-size: 14px;&quot;&gt;plot_coils.py&lt;/font&gt;" style="swimlane;whiteSpace=wrap;html=1;startSize=30;fillColor=#f8cecc;gradientColor=#ea6b66;strokeColor=#b85450;" parent="1" vertex="1">
          <mxGeometry x="885" y="912" width="210" height="130" as="geometry" />
        </mxCell>
        <mxCell id="7N_agk7MGS3db1LfP_Yc-147" value="This script makes a 3D plot of the coils. The geometry of the coils is read from co_asd.dd.&lt;div style=&quot;line-height: 80%;&quot;&gt;&lt;br&gt;&lt;/div&gt;&lt;div style=&quot;line-height: 80%;&quot;&gt;FUNCTIONS: -&lt;br&gt;&lt;div style=&quot;line-height: 80%;&quot;&gt;&lt;br&gt;&lt;/div&gt;&lt;div&gt;GLOBALS: -&lt;/div&gt;&lt;/div&gt;" style="text;html=1;align=left;verticalAlign=top;whiteSpace=wrap;rounded=0;horizontal=1;" parent="7N_agk7MGS3db1LfP_Yc-146" vertex="1">
          <mxGeometry y="30" width="210" height="100" as="geometry" />
        </mxCell>
        <mxCell id="7N_agk7MGS3db1LfP_Yc-149" style="edgeStyle=orthogonalEdgeStyle;rounded=0;orthogonalLoop=1;jettySize=auto;html=1;exitX=1;exitY=0.5;exitDx=0;exitDy=0;entryX=0;entryY=0.5;entryDx=0;entryDy=0;strokeColor=#00FFFF;" parent="1" source="7N_agk7MGS3db1LfP_Yc-50" target="7N_agk7MGS3db1LfP_Yc-147" edge="1">
          <mxGeometry relative="1" as="geometry" />
        </mxCell>
        <mxCell id="7N_agk7MGS3db1LfP_Yc-150" value="&lt;font style=&quot;font-size: 12px;&quot;&gt;&amp;nbsp;read&amp;nbsp;&lt;/font&gt;" style="edgeLabel;html=1;align=center;verticalAlign=middle;resizable=0;points=[];labelBorderColor=#00FFFF;" parent="7N_agk7MGS3db1LfP_Yc-149" vertex="1" connectable="0">
          <mxGeometry x="-0.0473" y="1" relative="1" as="geometry">
            <mxPoint as="offset" />
          </mxGeometry>
        </mxCell>
        <mxCell id="TQm6dS169vfw1QDtVwA7-11" value="" style="strokeWidth=2;html=1;shape=mxgraph.flowchart.database;whiteSpace=wrap;fillColor=#dae8fc;strokeColor=#6c8ebf;gradientColor=#7ea6e0;" parent="1" vertex="1">
          <mxGeometry x="70" y="30" width="170" height="140" as="geometry" />
        </mxCell>
        <mxCell id="TQm6dS169vfw1QDtVwA7-15" value="&lt;div style=&quot;&quot;&gt;&lt;font style=&quot;font-size: 14px;&quot;&gt;discretization points per dimension;&amp;nbsp;&lt;/font&gt;&lt;/div&gt;&lt;div style=&quot;&quot;&gt;&lt;font style=&quot;font-size: 14px;&quot;&gt;R- and Z-dimension boundaries&lt;/font&gt;&lt;/div&gt;" style="text;html=1;align=left;verticalAlign=middle;whiteSpace=wrap;rounded=0;" parent="1" vertex="1">
          <mxGeometry x="76.07142857142857" y="79.53846153846153" width="157.85714285714283" height="75.38461538461539" as="geometry" />
        </mxCell>
        <mxCell id="TQm6dS169vfw1QDtVwA7-16" value="&lt;font style=&quot;font-size: 14px;&quot;&gt;biotsavart.inp&lt;/font&gt;" style="text;strokeColor=none;fillColor=none;html=1;fontSize=24;fontStyle=1;verticalAlign=middle;align=center;" parent="1" vertex="1">
          <mxGeometry x="94.28571428571428" y="40.76923076923077" width="121.42857142857142" height="21.538461538461537" as="geometry" />
        </mxCell>
        <mxCell id="TQm6dS169vfw1QDtVwA7-19" value="" style="strokeWidth=2;html=1;shape=mxgraph.flowchart.database;whiteSpace=wrap;fillColor=#dae8fc;strokeColor=#6c8ebf;gradientColor=#7ea6e0;" parent="1" vertex="1">
          <mxGeometry x="720" y="30" width="160" height="140" as="geometry" />
        </mxCell>
        <mxCell id="TQm6dS169vfw1QDtVwA7-20" value="&lt;div style=&quot;&quot;&gt;&lt;span style=&quot;font-size: 14px;&quot;&gt;input parameters for calculation; magnetic field components&amp;nbsp;&lt;/span&gt;&lt;span style=&quot;font-size: 14px; background-color: initial;&quot;&gt;(R, phi, Z)&lt;/span&gt;&lt;span style=&quot;background-color: initial; font-size: 14px;&quot;&gt;&amp;nbsp;on each point of the cylindrical&amp;nbsp;&lt;/span&gt;&lt;span style=&quot;background-color: initial; font-size: 14px;&quot;&gt;grid&lt;/span&gt;&lt;/div&gt;" style="text;html=1;align=left;verticalAlign=middle;whiteSpace=wrap;rounded=0;" parent="1" vertex="1">
          <mxGeometry x="725.71" y="79.54" width="154.29" height="75.38" as="geometry" />
        </mxCell>
        <mxCell id="TQm6dS169vfw1QDtVwA7-21" value="&lt;span style=&quot;font-size: 14px;&quot;&gt;field.dat&lt;/span&gt;" style="text;strokeColor=none;fillColor=none;html=1;fontSize=24;fontStyle=1;verticalAlign=middle;align=center;" parent="1" vertex="1">
          <mxGeometry x="742.8571428571429" y="40.76923076923077" width="114.28571428571428" height="21.538461538461537" as="geometry" />
        </mxCell>
        <mxCell id="7N_agk7MGS3db1LfP_Yc-45" value="" style="strokeWidth=2;html=1;shape=mxgraph.flowchart.database;whiteSpace=wrap;fillColor=#dae8fc;gradientColor=#7ea6e0;strokeColor=#6c8ebf;" parent="1" vertex="1">
          <mxGeometry x="880" y="470" width="220" height="170" as="geometry" />
        </mxCell>
        <mxCell id="7N_agk7MGS3db1LfP_Yc-46" value="&lt;div style=&quot;&quot;&gt;&lt;span style=&quot;font-size: 14px;&quot;&gt;magnetic field scaling factor (facb), total number of nodes of all coils (nnodc),&amp;nbsp;&lt;/span&gt;&lt;span style=&quot;background-color: initial; font-size: 14px;&quot;&gt;big radius (r_st), toroidal angle (fi_st), altitude (z_st) and magnetic field in r, phi and z-direction (br, b_f, bz)&lt;/span&gt;&lt;/div&gt;" style="text;html=1;align=left;verticalAlign=middle;whiteSpace=wrap;rounded=0;" parent="1" vertex="1">
          <mxGeometry x="887.86" y="526" width="212.14" height="100.46" as="geometry" />
        </mxCell>
        <mxCell id="7N_agk7MGS3db1LfP_Yc-47" value="&lt;span style=&quot;font-size: 14px;&quot;&gt;fort.36&lt;/span&gt;" style="text;strokeColor=none;fillColor=none;html=1;fontSize=24;fontStyle=1;verticalAlign=middle;align=center;" parent="1" vertex="1">
          <mxGeometry x="932.8671428571429" y="480.7692307692308" width="114.28571428571428" height="21.538461538461537" as="geometry" />
        </mxCell>
        <mxCell id="7N_agk7MGS3db1LfP_Yc-49" value="" style="strokeWidth=2;html=1;shape=mxgraph.flowchart.database;whiteSpace=wrap;fillColor=#dae8fc;gradientColor=#7ea6e0;strokeColor=#6c8ebf;" parent="1" vertex="1">
          <mxGeometry x="509" y="917" width="240" height="123" as="geometry" />
        </mxCell>
        <mxCell id="7N_agk7MGS3db1LfP_Yc-50" value="&lt;div style=&quot;&quot;&gt;&lt;span style=&quot;font-size: 14px;&quot;&gt;total number of nodes (nnod); x,y and z values for each node (XO, YO, ZO); corresponding coil index (nco) and current factor (cur) for each node&lt;/span&gt;&lt;br&gt;&lt;/div&gt;" style="text;html=1;align=left;verticalAlign=middle;whiteSpace=wrap;rounded=0;" parent="1" vertex="1">
          <mxGeometry x="512.29" y="960.46" width="237.71" height="64.62" as="geometry" />
        </mxCell>
        <mxCell id="7N_agk7MGS3db1LfP_Yc-51" value="&lt;span style=&quot;font-size: 14px;&quot;&gt;co_asd.dd&lt;/span&gt;" style="text;strokeColor=none;fillColor=none;html=1;fontSize=24;fontStyle=1;verticalAlign=middle;align=center;" parent="1" vertex="1">
          <mxGeometry x="550.1428571428571" y="929.2307692307693" width="185.7142857142857" height="18.46153846153846" as="geometry" />
        </mxCell>
        <mxCell id="7N_agk7MGS3db1LfP_Yc-53" value="" style="strokeWidth=2;html=1;shape=mxgraph.flowchart.database;whiteSpace=wrap;fillColor=#dae8fc;gradientColor=#7ea6e0;strokeColor=#6c8ebf;" parent="1" vertex="1">
          <mxGeometry x="231.29" y="912" width="160" height="80" as="geometry" />
        </mxCell>
        <mxCell id="7N_agk7MGS3db1LfP_Yc-54" value="&lt;div style=&quot;&quot;&gt;&lt;span style=&quot;font-size: 14px;&quot;&gt;current values of each coil&lt;/span&gt;&lt;/div&gt;" style="text;html=1;align=left;verticalAlign=middle;whiteSpace=wrap;rounded=0;" parent="1" vertex="1">
          <mxGeometry x="242.72" y="959.9985714285714" width="148.57" height="11.69142857142857" as="geometry" />
        </mxCell>
        <mxCell id="7N_agk7MGS3db1LfP_Yc-55" value="&lt;span style=&quot;font-size: 14px;&quot;&gt;cur_asd.dd&lt;/span&gt;" style="text;strokeColor=none;fillColor=none;html=1;fontSize=24;fontStyle=1;verticalAlign=middle;align=center;" parent="1" vertex="1">
          <mxGeometry x="259.85714285714283" y="917.1538461538462" width="114.28571428571428" height="12.307692307692307" as="geometry" />
        </mxCell>
        <mxCell id="6CB63GJtp8AwtAxeLBTt-10" value="&lt;span style=&quot;font-size: 14px;&quot;&gt;vvn_asdex.py&lt;/span&gt;" style="swimlane;whiteSpace=wrap;html=1;fillColor=#d5e8d4;gradientColor=#97d077;strokeColor=#82b366;" parent="1" vertex="1">
          <mxGeometry x="132" y="265" width="680" height="600" as="geometry" />
        </mxCell>
        <mxCell id="7N_agk7MGS3db1LfP_Yc-3" value="&lt;div&gt;Module for magnetic field calculation from input parameters and geometry and current of the coils.&lt;/div&gt;&lt;div&gt;FUNCTIONS: gbcoil, GBmodc, datw7xm and magfie&lt;/div&gt;&lt;div style=&quot;line-height: 80%;&quot;&gt;&lt;br&gt;&lt;div style=&quot;line-height: 80%;&quot;&gt;GLOBALS:&amp;nbsp;&lt;span style=&quot;background-color: initial;&quot;&gt;bfrt, cur, curco, facb, facbc, ier, K2, nco, nnodc, NPR, PROP, XO, YO and ZO&lt;/span&gt;&lt;/div&gt;&lt;/div&gt;" style="text;html=1;align=left;verticalAlign=top;whiteSpace=wrap;rounded=0;horizontal=1;" parent="6CB63GJtp8AwtAxeLBTt-10" vertex="1">
          <mxGeometry y="25" width="680" height="570" as="geometry" />
        </mxCell>
        <mxCell id="7N_agk7MGS3db1LfP_Yc-7" value="magfie" style="swimlane;horizontal=0;whiteSpace=wrap;html=1;fillColor=#ffcd28;strokeColor=#d79b00;gradientColor=#ffa500;" parent="6CB63GJtp8AwtAxeLBTt-10" vertex="1">
          <mxGeometry x="23" y="100" width="634" height="110" as="geometry">
            <mxRectangle x="23" y="140" width="40" height="70" as="alternateBounds" />
          </mxGeometry>
        </mxCell>
        <mxCell id="7N_agk7MGS3db1LfP_Yc-27" value="Get the magnetic field components and their derivatives from gbcoil and use them to determine the magnetic field module in units of the magnetic code (bmod), the square root of determinant of the metric tensor (sqrtg), the derivatives of the logarithm of the magnetic field module over coordinates (bder), the covariant componets of the unit vector of the magnetic field direction(hcovar), the contravariant components of this vector (hctrvr) and the contravariant component of the curl of this vector (hcurl).&lt;div style=&quot;line-height: 80%;&quot;&gt;&lt;br&gt;&lt;div&gt;GLOBALS: -&lt;/div&gt;&lt;/div&gt;" style="text;html=1;align=left;verticalAlign=top;whiteSpace=wrap;rounded=0;" parent="7N_agk7MGS3db1LfP_Yc-7" vertex="1">
          <mxGeometry x="22.5" width="607" height="95" as="geometry" />
        </mxCell>
        <mxCell id="7N_agk7MGS3db1LfP_Yc-5" value="gbcoil" style="swimlane;horizontal=0;whiteSpace=wrap;html=1;fillColor=#ffcd28;gradientColor=#ffa500;strokeColor=#d79b00;" parent="6CB63GJtp8AwtAxeLBTt-10" vertex="1">
          <mxGeometry x="21" y="255" width="637" height="70" as="geometry" />
        </mxCell>
        <mxCell id="7N_agk7MGS3db1LfP_Yc-33" value="" style="group" parent="7N_agk7MGS3db1LfP_Yc-5" vertex="1" connectable="0">
          <mxGeometry x="-1" width="637" height="70" as="geometry" />
        </mxCell>
        <mxCell id="7N_agk7MGS3db1LfP_Yc-28" value="Get the magnetic field components and their derivatives from GBmodc and scale them with the factor facb. Create the file fort.36.&lt;div style=&quot;line-height: 80%;&quot;&gt;&lt;br&gt;&lt;/div&gt;&lt;div&gt;GLOBALS: facb (&lt;font color=&quot;#ff0000&quot;&gt;C&lt;/font&gt;&lt;font color=&quot;#00ff00&quot;&gt;R&lt;/font&gt;&lt;span style=&quot;color: rgb(0, 0, 255);&quot;&gt;W&lt;/span&gt;), facbc(&lt;font color=&quot;#ff0000&quot;&gt;C&lt;/font&gt;&lt;font color=&quot;#00ff00&quot;&gt;R&lt;/font&gt;), ier(&lt;font color=&quot;#ff0000&quot;&gt;C&lt;/font&gt;&lt;font color=&quot;#00ff00&quot;&gt;R&lt;/font&gt;&lt;font color=&quot;#0000ff&quot;&gt;W&lt;/font&gt;) and&amp;nbsp;&lt;span style=&quot;background-color: initial;&quot;&gt;nnodc(&lt;font color=&quot;#ff0000&quot;&gt;C&lt;/font&gt;&lt;font color=&quot;#00ff00&quot;&gt;R&lt;/font&gt;)&lt;/span&gt;&lt;br&gt;&lt;/div&gt;" style="text;html=1;align=left;verticalAlign=top;whiteSpace=wrap;rounded=0;" parent="7N_agk7MGS3db1LfP_Yc-33" vertex="1">
          <mxGeometry x="24" width="613" height="70" as="geometry" />
        </mxCell>
        <mxCell id="7N_agk7MGS3db1LfP_Yc-15" style="edgeStyle=orthogonalEdgeStyle;rounded=0;orthogonalLoop=1;jettySize=auto;html=1;exitX=0.25;exitY=1;exitDx=0;exitDy=0;entryX=0.25;entryY=0;entryDx=0;entryDy=0;fillColor=#1ba1e2;strokeColor=#0000cd;" parent="6CB63GJtp8AwtAxeLBTt-10" source="7N_agk7MGS3db1LfP_Yc-7" target="7N_agk7MGS3db1LfP_Yc-5" edge="1">
          <mxGeometry relative="1" as="geometry" />
        </mxCell>
        <mxCell id="7N_agk7MGS3db1LfP_Yc-16" value="&amp;nbsp;call(RI, fI, ZI)&amp;nbsp;" style="edgeLabel;html=1;align=center;verticalAlign=middle;resizable=0;points=[];fontSize=12;labelBorderColor=#0000ff;" parent="7N_agk7MGS3db1LfP_Yc-15" vertex="1" connectable="0">
          <mxGeometry x="0.0678" y="-1" relative="1" as="geometry">
            <mxPoint x="2" y="-2" as="offset" />
          </mxGeometry>
        </mxCell>
        <mxCell id="7N_agk7MGS3db1LfP_Yc-17" style="edgeStyle=orthogonalEdgeStyle;rounded=0;orthogonalLoop=1;jettySize=auto;html=1;exitX=0.75;exitY=0;exitDx=0;exitDy=0;entryX=0.75;entryY=1;entryDx=0;entryDy=0;strokeColor=#ff0000;" parent="6CB63GJtp8AwtAxeLBTt-10" source="7N_agk7MGS3db1LfP_Yc-5" target="7N_agk7MGS3db1LfP_Yc-7" edge="1">
          <mxGeometry relative="1" as="geometry" />
        </mxCell>
        <mxCell id="7N_agk7MGS3db1LfP_Yc-18" value="&amp;nbsp;return(BRI, BfI, BZI, BRRI, BRfI, BRZI, BfRI, BffI, BfZI, BZRI, BZfI, BZZI)&amp;nbsp;" style="edgeLabel;html=1;align=center;verticalAlign=middle;resizable=0;points=[];fontSize=12;labelBorderColor=#ff0000;" parent="7N_agk7MGS3db1LfP_Yc-17" vertex="1" connectable="0">
          <mxGeometry x="-0.2278" y="-3" relative="1" as="geometry">
            <mxPoint x="-22" y="-6" as="offset" />
          </mxGeometry>
        </mxCell>
        <mxCell id="7N_agk7MGS3db1LfP_Yc-37" value="" style="group" parent="6CB63GJtp8AwtAxeLBTt-10" vertex="1" connectable="0">
          <mxGeometry x="18" y="505" width="641" height="70" as="geometry" />
        </mxCell>
        <mxCell id="7N_agk7MGS3db1LfP_Yc-43" value="" style="group" parent="7N_agk7MGS3db1LfP_Yc-37" vertex="1" connectable="0">
          <mxGeometry width="641" height="70" as="geometry" />
        </mxCell>
        <mxCell id="7N_agk7MGS3db1LfP_Yc-32" value="datw7xm" style="swimlane;horizontal=0;whiteSpace=wrap;html=1;startSize=23;fillColor=#ffcd28;gradientColor=#ffa500;strokeColor=#d79b00;" parent="7N_agk7MGS3db1LfP_Yc-43" vertex="1">
          <mxGeometry width="638.9842767295598" height="70" as="geometry" />
        </mxCell>
        <mxCell id="7N_agk7MGS3db1LfP_Yc-35" value="&lt;div&gt;Read the currents for each coil (curco) from cur_asd.dd. Read coil geometry points (XO, YO, ZO), coil indices (nco) and current factors (cur) from co_asd.dd.&lt;br&gt;&lt;/div&gt;&lt;div style=&quot;line-height: 80%;&quot;&gt;&lt;br&gt;&lt;/div&gt;GLOBALS: cur(&lt;font color=&quot;#00ff00&quot;&gt;R&lt;/font&gt;&lt;font color=&quot;#0000ff&quot;&gt;W&lt;/font&gt;), curco(&lt;font color=&quot;#ff0000&quot;&gt;C&lt;/font&gt;&lt;font color=&quot;#0000ff&quot;&gt;W&lt;/font&gt;), nco(&lt;font color=&quot;#00ff00&quot;&gt;R&lt;/font&gt;&lt;font color=&quot;#0000ff&quot;&gt;W&lt;/font&gt;), nnodc(&lt;font color=&quot;#ff0000&quot;&gt;C&lt;/font&gt;&lt;font color=&quot;#0000ff&quot;&gt;W&lt;/font&gt;), XO(&lt;font color=&quot;#00ff00&quot;&gt;R&lt;/font&gt;&lt;font color=&quot;#0000ff&quot;&gt;W&lt;/font&gt;), YO(&lt;font color=&quot;#00ff00&quot;&gt;R&lt;/font&gt;&lt;font color=&quot;#0000ff&quot;&gt;W&lt;/font&gt;) and ZO(&lt;font color=&quot;#00ff00&quot;&gt;R&lt;/font&gt;&lt;font color=&quot;#0000ff&quot;&gt;W&lt;/font&gt;)" style="text;html=1;align=left;verticalAlign=top;whiteSpace=wrap;rounded=0;" parent="7N_agk7MGS3db1LfP_Yc-43" vertex="1">
          <mxGeometry x="23.180817610062896" width="618.8270440251573" height="65" as="geometry" />
        </mxCell>
        <mxCell id="6CB63GJtp8AwtAxeLBTt-38" value="GBmodc" style="swimlane;horizontal=0;whiteSpace=wrap;html=1;fillColor=#ffcd28;strokeColor=#d79b00;gradientColor=#ffa500;" parent="1" vertex="1">
          <mxGeometry x="150" y="640" width="640" height="90" as="geometry">
            <mxRectangle x="23" y="140" width="40" height="70" as="alternateBounds" />
          </mxGeometry>
        </mxCell>
        <mxCell id="7N_agk7MGS3db1LfP_Yc-29" value="Performs the actual computation of the magnetic field components and their derivatives by evaluating the Biot-Savart integral and using the input coordinates and current distribution. The latter are returned from datw7xm.&lt;div style=&quot;line-height: 80%;&quot;&gt;&lt;br&gt;&lt;/div&gt;&lt;div&gt;GLOBALS: bfrt(&lt;font color=&quot;#ff0000&quot;&gt;C&lt;/font&gt;&lt;font color=&quot;#00ff00&quot;&gt;R&lt;/font&gt;&lt;span style=&quot;color: rgb(0, 0, 255);&quot;&gt;W&lt;/span&gt;), cur(&lt;font color=&quot;#ff0000&quot;&gt;C&lt;/font&gt;&lt;font color=&quot;#00ff00&quot;&gt;R&lt;/font&gt;&lt;span style=&quot;color: rgb(0, 0, 255);&quot;&gt;W&lt;/span&gt;), curco(&lt;font color=&quot;#ff0000&quot;&gt;C&lt;/font&gt;&lt;font color=&quot;#00ff00&quot;&gt;R&lt;/font&gt;), K2(&lt;font color=&quot;#ff0000&quot;&gt;C&lt;/font&gt;&lt;font color=&quot;#00ff00&quot;&gt;R&lt;/font&gt;&lt;font color=&quot;#0000ff&quot;&gt;W&lt;/font&gt;), nco(&lt;font color=&quot;#ff0000&quot;&gt;C&lt;/font&gt;&lt;font color=&quot;#00ff00&quot;&gt;R&lt;/font&gt;&lt;font color=&quot;#0000ff&quot;&gt;W&lt;/font&gt;), nnodc(&lt;font color=&quot;#ff0000&quot;&gt;C&lt;/font&gt;&lt;font color=&quot;#00ff00&quot;&gt;R&lt;/font&gt;), NPR(&lt;font color=&quot;#ff0000&quot;&gt;C&lt;/font&gt;&lt;font color=&quot;#00ff00&quot;&gt;R&lt;/font&gt;&lt;font color=&quot;#0000ff&quot;&gt;W&lt;/font&gt;), PROP(&lt;font color=&quot;#ff0000&quot;&gt;C&lt;/font&gt;&lt;font color=&quot;#00ff00&quot;&gt;R&lt;/font&gt;&lt;font color=&quot;#0000ff&quot;&gt;W&lt;/font&gt;), XO(&lt;font color=&quot;#ff0000&quot;&gt;C&lt;/font&gt;&lt;font color=&quot;#00ff00&quot;&gt;R&lt;/font&gt;&lt;font color=&quot;#0000ff&quot;&gt;W&lt;/font&gt;), YO(&lt;font color=&quot;#ff0000&quot;&gt;C&lt;/font&gt;&lt;font color=&quot;#00ff00&quot;&gt;R&lt;/font&gt;&lt;font color=&quot;#0000ff&quot;&gt;W&lt;/font&gt;) and ZO(&lt;font color=&quot;#ff0000&quot;&gt;C&lt;/font&gt;&lt;font color=&quot;#00ff00&quot;&gt;R&lt;/font&gt;&lt;font color=&quot;#0000ff&quot;&gt;W&lt;/font&gt;)&lt;br&gt;&lt;/div&gt;" style="text;html=1;align=left;verticalAlign=top;whiteSpace=wrap;rounded=0;" parent="6CB63GJtp8AwtAxeLBTt-38" vertex="1">
          <mxGeometry x="23" width="616" height="80" as="geometry" />
        </mxCell>
        <mxCell id="7N_agk7MGS3db1LfP_Yc-19" style="edgeStyle=orthogonalEdgeStyle;rounded=0;orthogonalLoop=1;jettySize=auto;html=1;exitX=0.25;exitY=1;exitDx=0;exitDy=0;entryX=0.226;entryY=0.006;entryDx=0;entryDy=0;strokeColor=#0000cd;entryPerimeter=0;" parent="1" source="7N_agk7MGS3db1LfP_Yc-5" target="7N_agk7MGS3db1LfP_Yc-29" edge="1">
          <mxGeometry relative="1" as="geometry">
            <mxPoint x="1183" y="660" as="targetPoint" />
          </mxGeometry>
        </mxCell>
        <mxCell id="7N_agk7MGS3db1LfP_Yc-20" value="&amp;nbsp;call(RI, fI, ZI)&amp;nbsp;" style="edgeLabel;html=1;align=center;verticalAlign=middle;resizable=0;points=[];fontSize=12;labelBorderColor=#0000ff;" parent="7N_agk7MGS3db1LfP_Yc-19" vertex="1" connectable="0">
          <mxGeometry x="0.0112" relative="1" as="geometry">
            <mxPoint as="offset" />
          </mxGeometry>
        </mxCell>
        <mxCell id="7N_agk7MGS3db1LfP_Yc-21" style="edgeStyle=orthogonalEdgeStyle;rounded=0;orthogonalLoop=1;jettySize=auto;html=1;exitX=0.743;exitY=0.006;exitDx=0;exitDy=0;entryX=0.75;entryY=1;entryDx=0;entryDy=0;strokeColor=#ff0000;exitPerimeter=0;" parent="1" source="7N_agk7MGS3db1LfP_Yc-29" target="7N_agk7MGS3db1LfP_Yc-5" edge="1">
          <mxGeometry relative="1" as="geometry">
            <mxPoint x="1459.25" y="660" as="sourcePoint" />
          </mxGeometry>
        </mxCell>
        <mxCell id="7N_agk7MGS3db1LfP_Yc-22" value="&amp;nbsp;return(BRI ,BfI, BZI, BRRI, BRfI, BRZI, BfRI, BffI, BfZI, BZRI, BZfI, BZZI)&amp;nbsp;" style="edgeLabel;html=1;align=center;verticalAlign=middle;resizable=0;points=[];fontSize=12;labelBorderColor=#ff0000;" parent="7N_agk7MGS3db1LfP_Yc-21" vertex="1" connectable="0">
          <mxGeometry x="-0.0694" y="-1" relative="1" as="geometry">
            <mxPoint x="-20" as="offset" />
          </mxGeometry>
        </mxCell>
        <mxCell id="7N_agk7MGS3db1LfP_Yc-25" style="edgeStyle=orthogonalEdgeStyle;rounded=0;orthogonalLoop=1;jettySize=auto;html=1;entryX=0.75;entryY=1;entryDx=0;entryDy=0;exitX=0.739;exitY=-0.025;exitDx=0;exitDy=0;strokeColor=#ff0000;exitPerimeter=0;" parent="1" source="7N_agk7MGS3db1LfP_Yc-35" target="6CB63GJtp8AwtAxeLBTt-38" edge="1">
          <mxGeometry relative="1" as="geometry">
            <mxPoint x="1403" y="790" as="sourcePoint" />
            <mxPoint x="1459.25" y="730" as="targetPoint" />
          </mxGeometry>
        </mxCell>
        <mxCell id="7N_agk7MGS3db1LfP_Yc-26" value="&amp;nbsp;return(XO, YO, ZO, cur, nco)&amp;nbsp;" style="edgeLabel;html=1;align=center;verticalAlign=middle;resizable=0;points=[];fontSize=12;labelBorderColor=#ff0000;" parent="7N_agk7MGS3db1LfP_Yc-25" vertex="1" connectable="0">
          <mxGeometry x="-0.004" y="1" relative="1" as="geometry">
            <mxPoint x="4" as="offset" />
          </mxGeometry>
        </mxCell>
        <mxCell id="7N_agk7MGS3db1LfP_Yc-23" style="edgeStyle=orthogonalEdgeStyle;rounded=0;orthogonalLoop=1;jettySize=auto;html=1;exitX=0.25;exitY=1;exitDx=0;exitDy=0;entryX=0.22;entryY=-0.007;entryDx=0;entryDy=0;strokeColor=#0000cd;entryPerimeter=0;" parent="1" source="6CB63GJtp8AwtAxeLBTt-38" target="7N_agk7MGS3db1LfP_Yc-35" edge="1">
          <mxGeometry relative="1" as="geometry">
            <mxPoint x="1145.7499999999998" y="730" as="sourcePoint" />
            <mxPoint x="1147.5" y="785" as="targetPoint" />
          </mxGeometry>
        </mxCell>
        <mxCell id="7N_agk7MGS3db1LfP_Yc-24" value="&amp;nbsp;call(neli)&amp;nbsp;" style="edgeLabel;html=1;align=center;verticalAlign=middle;resizable=0;points=[];fontSize=12;labelBorderColor=#0000ff;" parent="7N_agk7MGS3db1LfP_Yc-23" vertex="1" connectable="0">
          <mxGeometry x="-0.0251" y="-2" relative="1" as="geometry">
            <mxPoint y="-3" as="offset" />
          </mxGeometry>
        </mxCell>
        <mxCell id="6CB63GJtp8AwtAxeLBTt-43" value="Legend for GLOBALS:&lt;br&gt;- &lt;font color=&quot;#ff0000&quot;&gt;C...Create&lt;/font&gt;&lt;div&gt;- &lt;font color=&quot;#00ff00&quot;&gt;R...Read&lt;/font&gt;&lt;/div&gt;&lt;div&gt;- &lt;font color=&quot;#0000ff&quot;&gt;W...Write&lt;/font&gt;&lt;/div&gt;" style="rounded=0;whiteSpace=wrap;html=1;verticalAlign=top;align=left;" parent="1" vertex="1">
          <mxGeometry x="1040" width="129" height="70" as="geometry" />
        </mxCell>
      </root>
    </mxGraphModel>
  </diagram>
</mxfile>
